<svg width="20" height="22" viewBox="0 0 20 22" fill="none" xmlns="http://www.w3.org/2000/svg">
<g clip-path="url(#clip0_785_311)">
<path d="M11.236 7.7H17.7182L11.236 1.65V7.7ZM2.98605 0H12.4146L19.486 6.6V19.8C19.486 20.3835 19.2377 20.9431 18.7957 21.3556C18.3536 21.7682 17.7541 22 17.1289 22H2.98605C2.3609 22 1.76135 21.7682 1.3193 21.3556C0.877247 20.9431 0.628906 20.3835 0.628906 19.8V2.2C0.628906 0.979 1.67783 0 2.98605 0ZM13.5932 17.6V15.4H2.98605V17.6H13.5932ZM17.1289 13.2V11H2.98605V13.2H17.1289Z" fill="#2B2B2B"/>
</g>
<defs>
<clipPath id="clip0_785_311">
<rect width="18.8571" height="22" fill="white" transform="translate(0.628906)"/>
</clipPath>
</defs>
</svg>
