<svg width="1077" height="741" viewBox="0 0 1077 741" fill="none" xmlns="http://www.w3.org/2000/svg">
<g filter="url(#filter0_d_609_548)">
<g clip-path="url(#clip0_609_548)">
<rect x="589" width="421" height="427" fill="#3F3F3F"/>
<rect x="589" width="421" height="27" fill="#F3F3F3"/>
<circle cx="610" cy="14" r="4" fill="#A7A7A7"/>
<circle cx="624" cy="14" r="4" fill="#A7A7A7"/>
<circle cx="638" cy="14" r="4" fill="#A7A7A7"/>
<circle cx="609" cy="49" r="3" fill="#D9D9D9"/>
<circle cx="609" cy="64" r="3" fill="#D9D9D9"/>
<circle cx="609" cy="79" r="3" fill="#D9D9D9"/>
<circle cx="609" cy="94" r="3" fill="#D9D9D9"/>
<circle cx="609" cy="109" r="3" fill="#D9D9D9"/>
<circle cx="609" cy="124" r="3" fill="#D9D9D9"/>
<circle cx="609" cy="139" r="3" fill="#D9D9D9"/>
<circle cx="609" cy="154" r="3" fill="#D9D9D9"/>
<circle cx="609" cy="169" r="3" fill="#D9D9D9"/>
<circle cx="609" cy="184" r="3" fill="#D9D9D9"/>
<circle cx="609" cy="199" r="3" fill="#D9D9D9"/>
<circle cx="609" cy="214" r="3" fill="#D9D9D9"/>
<circle cx="609" cy="229" r="3" fill="#D9D9D9"/>
<circle cx="609" cy="244" r="3" fill="#D9D9D9"/>
<circle cx="609" cy="259" r="3" fill="#D9D9D9"/>
<circle cx="609" cy="274" r="3" fill="#D9D9D9"/>
<circle cx="609" cy="289" r="3" fill="#D9D9D9"/>
<circle cx="609" cy="304" r="3" fill="#D9D9D9"/>
<circle cx="609" cy="319" r="3" fill="#D9D9D9"/>
<circle cx="609" cy="334" r="3" fill="#D9D9D9"/>
<circle cx="609" cy="349" r="3" fill="#D9D9D9"/>
<circle cx="609" cy="364" r="3" fill="#D9D9D9"/>
<circle cx="609" cy="379" r="3" fill="#D9D9D9"/>
<circle cx="609" cy="394" r="3" fill="#D9D9D9"/>
<circle cx="609" cy="409" r="3" fill="#D9D9D9"/>
<rect x="621" y="46" width="65" height="5" rx="2" fill="#D9D9D9"/>
<rect x="621" y="61" width="32" height="5" rx="2" fill="#B7295C"/>
<rect x="634" y="106" width="92" height="5" rx="2" fill="#D9D9D9"/>
<rect x="621" y="361" width="32" height="5" rx="2" fill="#D9D9D9"/>
<rect x="621" y="376" width="32" height="5" rx="2" fill="#D9D9D9"/>
<rect x="621" y="391" width="32" height="5" rx="2" fill="#D9D9D9"/>
<rect x="861" y="61" width="22" height="5" rx="2" fill="#D9D9D9"/>
<rect x="755" y="76" width="128" height="5" rx="2" fill="#B7295C"/>
<rect x="861" y="91" width="17" height="5" rx="2" fill="#D9D9D9"/>
<rect x="733" y="106" width="22" height="5" rx="2" fill="#D9D9D9"/>
<rect x="861" y="136" width="17" height="5" rx="2" fill="#D9D9D9"/>
<rect x="729" y="151" width="22" height="5" rx="2" fill="#D9D9D9"/>
<rect x="812" y="166" width="56" height="5" rx="2" fill="#D9D9D9"/>
<rect x="843" y="181" width="13" height="5" rx="2" fill="#D8AF58"/>
<rect x="861" y="196" width="54" height="5" rx="2" fill="#B7295C"/>
<rect x="827" y="241" width="22" height="5" rx="2" fill="#D9D9D9"/>
<rect x="861" y="256" width="22" height="5" rx="2" fill="#D9D9D9"/>
<rect x="861" y="286" width="59" height="5" rx="2" fill="#D9D9D9"/>
<rect x="763" y="271" width="28" height="5" rx="2" fill="#D8AF58"/>
<rect x="801" y="346" width="22" height="5" rx="2" fill="#315964"/>
<rect x="838" y="376" width="16" height="5" rx="2" fill="#D9D9D9"/>
<rect x="888" y="91" width="49" height="5" rx="2" fill="#D9D9D9"/>
<rect x="764" y="106" width="59" height="5" rx="2" fill="#D8AF58"/>
<rect x="760" y="151" width="59" height="5" rx="2" fill="#315964"/>
<rect x="867" y="376" width="59" height="5" rx="2" fill="#D9D9D9"/>
<rect x="692" y="46" width="46" height="5" rx="2" fill="#D9D9D9"/>
<rect x="662" y="61" width="190" height="5" rx="2" fill="#D8AF58"/>
<rect x="662" y="76" width="82" height="5" rx="2" fill="#315964"/>
<rect x="662" y="91" width="190" height="5" rx="2" fill="#315964"/>
<rect x="662" y="136" width="190" height="5" rx="2" fill="#B7295C"/>
<rect x="662" y="151" width="57" height="5" rx="2" fill="#B7295C"/>
<rect x="662" y="166" width="139" height="5" rx="2" fill="#D8AF58"/>
<rect x="662" y="181" width="173" height="5" rx="2" fill="#D9D9D9"/>
<rect x="662" y="196" width="190" height="5" rx="2" fill="#315964"/>
<rect x="662" y="226" width="176" height="5" rx="2" fill="#D9D9D9"/>
<rect x="662" y="241" width="157" height="5" rx="2" fill="#315964"/>
<rect x="662" y="256" width="190" height="5" rx="2" fill="#D8AF58"/>
<rect x="662" y="286" width="190" height="5" rx="2" fill="#B7295C"/>
<rect x="662" y="301" width="161" height="5" rx="2" fill="#D9D9D9"/>
<rect x="662" y="346" width="129" height="5" rx="2" fill="#315964"/>
<rect x="662" y="361" width="212" height="5" rx="2" fill="#D8AF58"/>
<rect x="662" y="376" width="168" height="5" rx="2" fill="#D9D9D9"/>
<rect x="662" y="391" width="268" height="5" rx="2" fill="#315964"/>
</g>
</g>
<g filter="url(#filter1_d_609_548)">
<path d="M793.658 202H215.342C200.794 202 189 213.079 189 226.746V586.69C189 600.356 200.794 623 215.342 623H793.658C808.206 623 820 600.356 820 586.69V226.746C820 213.079 808.206 202 793.658 202Z" fill="#1C2F36"/>
<path d="M794 224H215C212.239 224 210 226.239 210 229V555C210 557.761 212.239 560 215 560H794C796.761 560 799 557.761 799 555V229C799 226.239 796.761 224 794 224Z" fill="#FCFCFC"/>
<path d="M504.18 592.463C509.802 592.463 514.359 588.33 514.359 583.231C514.359 578.133 509.802 574 504.18 574C498.558 574 494 578.133 494 583.231C494 588.33 498.558 592.463 504.18 592.463Z" fill="#315964"/>
<path d="M389 434H635" stroke="#A2A2A2" stroke-width="3" stroke-linecap="round"/>
<path d="M408 441H600" stroke="#A2A2A2" stroke-width="3" stroke-linecap="round"/>
<path d="M577.024 623H427.861C436.091 669.154 410.716 692.231 397 698H612C576.612 682.308 574.281 642.615 577.024 623Z" fill="#1C2F36"/>
<rect x="289" y="464" width="119" height="72.0263" fill="#F25749"/>
<ellipse cx="303.5" cy="481" rx="8.5" ry="8" fill="#DCDCDC"/>
<path d="M319 477H382.414" stroke="#DCDCDC" stroke-linecap="round"/>
<path d="M319 484H342.487" stroke="#DCDCDC" stroke-linecap="round"/>
<path d="M395 470V477.5L398 475L400.5 477.5V470H395Z" stroke="#DCDCDC" stroke-width="0.8"/>
<path d="M289 542H402" stroke="#A2A2A2" stroke-width="2" stroke-linecap="round"/>
<rect x="445" y="464" width="119" height="72.0263" fill="#385B64"/>
<ellipse cx="459.5" cy="481" rx="8.5" ry="8" fill="#DCDCDC"/>
<path d="M475 477H538.414" stroke="#DCDCDC" stroke-linecap="round"/>
<path d="M475 484H498.487" stroke="#DCDCDC" stroke-linecap="round"/>
<path d="M551 470V477.5L554 475L556.5 477.5V470H551Z" stroke="#DCDCDC" stroke-width="0.8"/>
<path d="M445 542H558" stroke="#A2A2A2" stroke-width="2" stroke-linecap="round"/>
<rect x="601" y="464" width="119" height="72.0263" fill="#F25749"/>
<ellipse cx="615.5" cy="481" rx="8.5" ry="8" fill="#DCDCDC"/>
<path d="M631 477H694.414" stroke="#DCDCDC" stroke-linecap="round"/>
<path d="M631 484H654.487" stroke="#DCDCDC" stroke-linecap="round"/>
<path d="M707 470V477.5L710 475L712.5 477.5V470H707Z" stroke="#DCDCDC" stroke-width="0.8"/>
<path d="M601 542H714" stroke="#A2A2A2" stroke-width="2" stroke-linecap="round"/>
<g clip-path="url(#clip1_609_548)">
<rect x="239.96" y="250.839" width="591.876" height="161.758" transform="rotate(1.5 239.96 250.839)" fill="#F25749"/>
<path fill-rule="evenodd" clip-rule="evenodd" d="M835.127 346.79L808.894 352.916C784.477 360.793 733.782 376.499 683.533 375.183C633.284 373.867 583.481 355.53 533.366 349.108C483.251 342.685 432.868 346.476 382.262 358.777C331.657 371.078 280.829 391.89 254.462 403.123L230 412.702L254.194 413.336C280.249 414.018 330.498 415.334 380.747 416.65C430.996 417.965 481.245 419.281 531.494 420.597C581.743 421.913 631.992 423.229 682.241 424.544C732.49 425.86 782.738 427.176 806.932 427.81L832.987 428.492L835.127 346.79Z" fill="#DF7B57"/>
<path d="M386.306 251.69L236 245V274.626C277.676 315.147 319.408 291.51 335.065 274.626C383.573 282.272 389.437 262.521 386.306 251.69Z" fill="#F2D8D8"/>
<circle cx="463.91" cy="304.91" r="17.8785" transform="rotate(1.5 463.91 304.91)" fill="#9D2D23"/>
<circle cx="768.734" cy="387.733" r="8.51357" transform="rotate(1.5 768.734 387.733)" fill="#F2D8D8"/>
<circle cx="521.486" cy="405.826" r="2.55407" transform="rotate(1.5 521.486 405.826)" fill="#8C3028"/>
<circle cx="533.401" cy="406.138" r="2.55407" transform="rotate(1.5 533.401 406.138)" fill="#8C3028"/>
<circle cx="545.316" cy="406.45" r="2.55407" transform="rotate(1.5 545.316 406.45)" fill="#8C3028"/>
</g>
<circle cx="226" cy="241" r="4" fill="#315964"/>
<circle cx="240" cy="241" r="4" fill="#315964"/>
<circle cx="254" cy="241" r="4" fill="#315964"/>
<circle cx="251.5" cy="500.5" r="11.5" fill="#E5E5E5"/>
<path d="M254 497L249 500.692L254 505" stroke="#80888B" stroke-linecap="round" stroke-linejoin="round"/>
<circle r="11.5" transform="matrix(-1 0 0 1 748.5 501.5)" fill="#E5E5E5"/>
<path d="M746 498L751 501.692L746 506" stroke="#80888B" stroke-linecap="round" stroke-linejoin="round"/>
<path d="M759.177 443.393L765.526 449.227L770.273 443.265C763.943 437.941 753.381 426.714 751.682 427.655C749.68 428.766 754.636 434.795 752.034 436.829C749.433 438.863 740.027 433.17 742.128 438.051C743.81 441.956 754.195 443.239 759.177 443.393Z" fill="#DEAB86"/>
<path d="M786.551 431.092L792.069 436.312L796.326 431.121C790.818 426.35 781.658 416.327 780.149 417.135C778.372 418.088 782.996 422.916 780.679 424.675C779.178 425 777.178 425.5 771.678 425.5C773.109 428.961 782.165 430.893 786.551 431.092Z" fill="#DEAB86"/>
<path d="M804.953 673.513C799.779 624.858 812.139 546.808 818.965 513.865H822.737L843.755 595.861L825.432 673.513H804.953Z" fill="#191847"/>
<path d="M875.39 541.573L872.178 513H822.678C828.702 541.573 854.413 632.788 873.239 674H893.678C886.793 662.131 878.618 580.769 875.39 541.573Z" fill="#393F82"/>
<path d="M792.678 423C819.178 444.5 846.694 447.67 847.437 432.5C849.935 432.5 845.725 452.301 840.67 472.326C840.67 479.869 796.722 435.606 784.678 435L792.678 423Z" fill="#77D692"/>
<path d="M792.678 423C819.178 444.5 846.694 447.67 847.437 432.5C849.935 432.5 845.725 452.301 840.67 472.326C840.67 479.869 796.722 435.606 784.678 435L792.678 423Z" fill="#77D692"/>
<path d="M850.223 399.118C839.135 400.883 831.439 398.634 828.937 394.774C826.164 397.421 825.087 401.39 824.894 403.044V421.24C824.894 423.446 827.781 426.202 831.247 427.857C834.019 429.18 833.362 429.695 835.672 427.857L841.642 430.614H847.417V412.418C855.733 410.212 852.726 400.956 850.223 399.118Z" fill="#DEAB86"/>
<path d="M841.749 385.163C834.793 383.907 829.302 390.218 827.427 393.531C823.335 398.486 820.266 431.188 822.311 433.802C823.949 435.895 829.814 434.674 832.542 433.802L834.588 431.188L839.703 430.141V422.819C832.747 431.188 827.257 424.563 825.381 420.204C825.21 414.975 824.971 403.886 825.381 401.376C825.79 398.865 828.011 396.495 829.07 395.623C835.283 402.673 844.341 404.514 848.399 404.514C853.719 408.28 848.91 411.314 845.842 412.359V428.573L853.003 427.004L859.652 433.802C862.107 434.221 866.813 433.628 868.859 433.28C869.03 431.188 869.269 426.376 868.859 423.865C868.451 421.355 862.21 414.103 859.141 410.79C860.369 402.004 856.924 393.531 855.049 390.393C851.468 387.255 850.445 386.732 841.749 385.163Z" fill="#361A0E"/>
<path d="M853.456 425.896L832.977 430.783C837.289 432.086 823.277 486.714 815.732 513.865H875.178C874.81 506.012 875.931 524.152 875.178 513.865C868.28 454.35 870.163 439.833 853.456 425.896Z" fill="#A8E5BA"/>
<path d="M896.032 683.83L890.643 673.513H875.553L880.403 683.83H896.032Z" fill="#DEAB86"/>
<path d="M822.199 683.287V673.513H807.648V683.287H822.199Z" fill="#DEAB86"/>
<path d="M898.187 698.492V683.287H879.864V682.201C872.103 687.849 857.229 691.07 850.762 691.976V698.492H898.187Z" fill="#1D1C42"/>
<path d="M823.816 698.492V683.287H805.493V682.201C797.732 687.849 782.858 691.07 776.391 691.976V698.492H823.816Z" fill="#1D1C42"/>
<path d="M772.533 428C831.178 460.5 853.096 449.83 854.178 428C857.818 428 868.545 444.684 861.178 473.5C861.178 484.355 772.533 476 757.178 458.5L772.533 428Z" fill="#A8E5BA"/>
<path d="M866.178 464C861.178 469.167 844.378 480 825.178 478C824.178 483 867.178 475 866.178 464Z" fill="#77D692"/>
<path d="M662.512 448.092C656.041 447.259 648.819 440.298 648.344 436C649.698 439.222 656.996 446.869 662.512 448.092C663.524 448.222 664.517 448.203 665.463 448C664.584 448.325 663.581 448.329 662.512 448.092Z" fill="#77D692"/>
<g clip-path="url(#clip2_609_548)">
<ellipse cx="98.9734" cy="702.44" rx="73.0089" ry="14.6156" fill="url(#paint0_radial_609_548)"/>
<path d="M38.354 545.821C67.3772 556.84 116.643 566.88 156.053 547.682C112.302 532.925 59.3575 540.292 38.354 545.821Z" fill="#A87631"/>
<path d="M164.055 545.02C153.045 530.596 44.0535 529.267 33.0442 545.02C36.1983 545.877 39.9023 546.776 44.0535 547.663C63.5031 544.782 112.531 540.942 153.045 548.634C156.823 547.598 160.503 546.399 164.055 545.02Z" fill="#A5DEC9"/>
<path d="M33.0442 701.548C52.1269 708.899 101.186 724.142 164.055 701.548V671.786V545.02C143.504 601.955 88.5309 712.971 33.0442 701.548Z" fill="#A5DEC9"/>
<path d="M33.0442 545.02V701.548C88.5309 712.971 143.504 601.955 164.055 545.02C160.503 546.399 156.823 547.598 153.045 548.634C116.551 558.64 70.9295 553.407 44.0535 547.663C39.9023 546.776 36.1983 545.877 33.0442 545.02Z" fill="#A8E5CF"/>
<path fill-rule="evenodd" clip-rule="evenodd" d="M208.265 597.06C208.265 588.972 201.662 582.415 193.516 582.415H164.018V595.229H193.516C194.534 595.229 195.36 596.049 195.36 597.06V650.149C195.36 651.159 194.534 651.979 193.516 651.979H164.018V664.794H193.516C201.662 664.794 208.265 658.237 208.265 650.149V597.06Z" fill="#A5DEC9"/>
<path d="M72.3993 486.651C61.6084 459.862 99.1392 420.581 112.628 415C105.884 425.655 93.4593 441.237 118.638 466.809C154.608 480.508 87.8988 535.247 101.387 523.07C112.178 513.329 85.8878 497.306 72.3993 486.651Z" fill="#D9D9D9" fill-opacity="0.29"/>
</g>
</g>
<g clip-path="url(#clip3_609_548)">
<g filter="url(#filter2_d_609_548)">
<path d="M416 119C416 103.6 402.8 91.4 387 93.2C375 94.6 365.4 104.2 364.2 116.2C363.2 125.4 367 133.6 373.4 138.8C376.2 141.2 378 144.6 378 148.4V149H402V148.8C402 145.2 403.6 141.6 406.4 139.2C412.2 134.4 416 127.2 416 119Z" fill="#FFDE8D"/>
</g>
<path d="M403.2 115.4L397.2 111.4C396.6 111 395.6 111 395 111.4L390 114.6L385.2 111.4C384.6 111 383.6 111 383 111.4L377 115.4C376.6 115.8 376.2 116.2 376.2 116.8C376.2 117.4 376.2 118 376.6 118.4L384.2 127.8V149H388.2V127C388.2 126.6 388 126.2 387.8 125.8L381.2 117.6L384.2 115.6L389 118.8C389.6 119.2 390.6 119.2 391.2 118.8L396 115.6L399 117.6L392.4 125.8C392.2 126.2 392 126.6 392 127V149H396V127.8L403.6 118.4C404 118 404.2 117.4 404 116.8C403.8 116.2 403.6 115.6 403.2 115.4Z" fill="#FFE9B1"/>
<path d="M390 169C393.314 169 396 166.314 396 163C396 159.686 393.314 157 390 157C386.686 157 384 159.686 384 163C384 166.314 386.686 169 390 169Z" fill="#5C6BC0"/>
<g filter="url(#filter3_d_609_548)">
<path d="M394 165H386C381.6 165 378 161.4 378 157V147H402V157C402 161.4 398.4 165 394 165Z" fill="#9FA8DA"/>
</g>
<path d="M402 157L378.8 160.2C379.4 161.6 380.6 163 382 163.8L400.8 161.2C401.6 160 402 158.6 402 157ZM378 152.4V156.4L402 153V149L378 152.4Z" fill="#5C6BC0"/>
</g>
<g clip-path="url(#clip4_609_548)">
<g filter="url(#filter4_d_609_548)">
<path d="M94.1686 337.557C92.8346 337.559 91.5466 337.154 90.5498 336.42L62.9728 316.124L92.0812 294.699C93.1662 293.93 94.5721 293.545 95.9966 293.626C97.4211 293.707 98.7504 294.247 99.6986 295.131C100.647 296.015 101.138 297.172 101.067 298.352C100.996 299.533 100.368 300.643 99.3188 301.445L79.3773 316.124L97.7874 329.67C98.6145 330.277 99.1988 331.079 99.4627 331.968C99.7266 332.857 99.6577 333.792 99.265 334.647C98.8724 335.503 98.1746 336.24 97.2643 336.76C96.354 337.279 95.2743 337.558 94.1686 337.557ZM142.919 337.548L172.027 316.124L144.45 295.827C143.37 295.032 141.952 294.626 140.51 294.696C139.067 294.767 137.717 295.309 136.758 296.204C135.798 297.098 135.307 298.272 135.392 299.466C135.477 300.661 136.132 301.778 137.213 302.573L155.623 316.124L135.681 330.798C134.6 331.593 133.944 332.71 133.859 333.905C133.773 335.1 134.264 336.274 135.223 337.169C136.183 338.064 137.533 338.607 138.976 338.678C140.419 338.75 141.838 338.343 142.919 337.548ZM117.424 343.942L128.324 289.794C128.463 289.202 128.458 288.593 128.308 288.003C128.159 287.413 127.868 286.854 127.453 286.359C127.038 285.863 126.507 285.442 125.892 285.119C125.277 284.796 124.59 284.579 123.871 284.479C123.153 284.38 122.418 284.401 121.71 284.541C121.001 284.681 120.334 284.937 119.747 285.294C119.16 285.651 118.666 286.102 118.293 286.62C117.92 287.138 117.677 287.712 117.576 288.309L106.676 342.458C106.537 343.05 106.542 343.659 106.692 344.249C106.841 344.839 107.132 345.398 107.547 345.893C107.962 346.389 108.493 346.81 109.108 347.133C109.723 347.456 110.41 347.673 111.129 347.772C111.847 347.872 112.582 347.851 113.29 347.711C113.999 347.571 114.666 347.315 115.253 346.958C115.84 346.601 116.334 346.15 116.707 345.632C117.08 345.114 117.324 344.54 117.424 343.942Z" fill="#F8E1E9"/>
</g>
</g>
<ellipse cx="985" cy="688" rx="54" ry="6" fill="url(#paint1_radial_609_548)"/>
<path d="M1042.96 587H926.193C924.852 587 923.891 588.294 924.278 589.578L951.223 678.852C951.478 679.696 952.255 680.274 953.137 680.274H1020.67C1021.59 680.274 1022.39 679.649 1022.62 678.759L1044.9 589.484C1045.22 588.222 1044.26 587 1042.96 587Z" fill="#F5D19B"/>
<rect x="941" y="680" width="88" height="10" rx="2" fill="#ED8B61"/>
<g clip-path="url(#clip5_609_548)">
<path d="M946.489 580.05C948.614 582.764 950.592 585.485 952.914 588.056C956.629 589.285 961.948 589.019 965.764 588.861C968.385 588.752 971.396 588.604 973.949 588.041C974.294 587.964 972.786 585.529 972.587 585.2C971.476 583.36 970.48 581.677 969.711 579.64C967.77 574.5 964.991 569.774 962.49 564.904C960.157 560.361 958.396 555.498 955.958 551.02C954.049 547.512 952.334 543.835 950.16 540.477C946.164 534.304 944.056 526.948 940.675 520.424C938.454 516.138 935.946 512.574 932.674 509.046C931.227 507.486 929.753 505.886 928.728 504.003C928.142 502.926 927.796 502.41 928.131 504.048C929.008 508.343 928.957 512.453 928.957 516.839C928.957 521.506 929.67 526.187 930.93 530.694C931.575 532.997 932.326 535.356 933.103 537.621C933.729 539.446 931.454 532.5 935.015 543.09C935.403 545.355 936.06 547.559 936.407 549.835C936.851 552.746 937.247 555.824 938.105 558.646C939.025 561.67 940.489 564.464 941.563 567.426C942.359 569.623 942.8 571.939 943.704 574.095C944.535 576.074 945.157 578.349 946.489 580.05Z" fill="#4A9891"/>
<path d="M946.274 499.641C946.274 490.423 946.053 481.216 946 472C946.752 473.199 947.64 474.159 948.053 475.531C948.484 476.962 948.902 478.55 949.498 479.91C951.078 483.518 953.954 486.344 955.703 489.912C956.299 491.127 956.505 492.485 957.041 493.731C957.773 495.428 958.588 497.084 959.14 498.853C960.012 501.646 960.981 504.233 962.425 506.793C963.331 508.4 964.782 510.231 965.284 512.006C966.306 515.617 966.948 519.243 968.372 522.751C970.301 527.505 973.478 531.597 975.231 536.435C976.377 539.597 976.895 543.142 976.934 546.497C976.991 551.429 977.102 556.425 976.782 561.348C976.567 564.655 976.644 568.166 975.961 571.41C975.309 574.503 974.767 577.803 974.531 580.957C974.286 584.236 974.989 587.755 974.41 590.989C974.369 591.218 972.562 587.877 972.296 587.231C971.589 585.514 970.567 583.822 969.984 582.078C967.076 573.385 960.654 566.518 957.558 557.983C956.116 554.007 954.15 550.17 952.601 546.224C952.07 544.874 951.501 543.478 951.049 542.102C950.716 541.089 950.828 539.952 950.38 538.98C948.72 535.38 947.916 531.317 947.916 527.357V519.432C947.916 517.611 947.225 516.017 947.034 514.219C946.527 509.438 946.274 504.45 946.274 499.641Z" fill="#3A897C"/>
<path d="M970.553 467.762C971.787 463.083 973.537 458.588 974.776 453.889C977.478 459.464 980.181 465.126 983.348 470.416C988.1 478.353 993.04 486.215 997.784 494.166C1002.16 501.509 1007.11 508.834 1008.87 517.342C1010.09 523.26 1010.79 530.491 1008.47 536.206C1007.48 538.639 1005.78 540.988 1004.46 543.263C1002.54 546.555 1001.24 549.975 1000.98 553.818C1000.35 562.885 1001.09 572.049 1001.09 581.126C1001.09 584.163 1000.91 587.16 1000.83 590.188C1000.8 591.517 998.673 590.84 997.754 590.731C990.811 589.911 983.889 590.068 976.906 590.068C976.03 590.068 972.631 590.014 972.631 588.922C972.631 583.994 972.831 579.064 973.1 574.144C973.237 571.643 973.159 569.124 973.159 566.62C973.159 563.262 972.355 560.176 971.958 556.864C971.303 551.4 972.161 546.006 971.109 540.548C969.843 533.981 969.916 527.381 969.059 520.765C968.733 518.243 968.713 515.702 968.108 513.21C967.192 509.437 967.097 505.978 967.097 502.097C967.097 497.558 966.851 492.936 967.141 488.405C967.383 484.625 968.183 480.838 968.884 477.126C969.471 474.016 969.746 470.82 970.553 467.762Z" fill="#4E9B8F"/>
<path d="M998.272 569.253C998.272 575.017 998.723 582.598 998 588.316C1001.45 588.803 1005.27 589.332 1008.77 588.734C1010.67 588.409 1011.97 587.777 1013.97 587.777C1014.85 587.777 1016.69 588.16 1017.49 587.613C1020.21 585.754 1021.4 582.319 1022.21 579.33C1022.79 577.189 1022.99 574.979 1023.6 572.826C1024.19 570.756 1025 568.762 1025.61 566.696C1027.17 561.388 1028.21 556.01 1029.24 550.579C1030.27 545.107 1030.02 539.217 1029.83 533.669C1029.65 528.295 1028.96 522.933 1028.77 517.566C1028.6 512.593 1028.65 507.488 1027.94 502.555C1027.4 498.806 1027.79 495.124 1027.39 491.402C1026.93 492.401 1025.73 494.917 1025.16 495.857C1024.48 496.95 1023.84 497.967 1023.05 498.982C1020.53 502.245 1018.54 506.059 1016.33 509.537C1013.11 514.596 1009.02 519.172 1006.56 524.683C1004.43 529.452 1003.37 534.625 1001.69 539.545C1000.04 544.386 1000.2 549.21 999.497 554.227C998.791 559.271 998.272 564.161 998.272 569.253Z" fill="#3C897D"/>
</g>
<defs>
<filter id="filter0_d_609_548" x="585" y="0" width="429" height="435" filterUnits="userSpaceOnUse" color-interpolation-filters="sRGB">
<feFlood flood-opacity="0" result="BackgroundImageFix"/>
<feColorMatrix in="SourceAlpha" type="matrix" values="0 0 0 0 0 0 0 0 0 0 0 0 0 0 0 0 0 0 127 0" result="hardAlpha"/>
<feOffset dy="4"/>
<feGaussianBlur stdDeviation="2"/>
<feComposite in2="hardAlpha" operator="out"/>
<feColorMatrix type="matrix" values="0 0 0 0 0 0 0 0 0 0 0 0 0 0 0 0 0 0 0.25 0"/>
<feBlend mode="normal" in2="BackgroundImageFix" result="effect1_dropShadow_609_548"/>
<feBlend mode="normal" in="SourceGraphic" in2="effect1_dropShadow_609_548" result="shape"/>
</filter>
<filter id="filter1_d_609_548" x="14" y="202" width="888.187" height="539" filterUnits="userSpaceOnUse" color-interpolation-filters="sRGB">
<feFlood flood-opacity="0" result="BackgroundImageFix"/>
<feColorMatrix in="SourceAlpha" type="matrix" values="0 0 0 0 0 0 0 0 0 0 0 0 0 0 0 0 0 0 127 0" result="hardAlpha"/>
<feOffset dy="4"/>
<feGaussianBlur stdDeviation="2"/>
<feComposite in2="hardAlpha" operator="out"/>
<feColorMatrix type="matrix" values="0 0 0 0 0 0 0 0 0 0 0 0 0 0 0 0 0 0 0.25 0"/>
<feBlend mode="normal" in2="BackgroundImageFix" result="effect1_dropShadow_609_548"/>
<feBlend mode="normal" in="SourceGraphic" in2="effect1_dropShadow_609_548" result="shape"/>
</filter>
<filter id="filter2_d_609_548" x="360.041" y="93.0234" width="59.9589" height="63.9766" filterUnits="userSpaceOnUse" color-interpolation-filters="sRGB">
<feFlood flood-opacity="0" result="BackgroundImageFix"/>
<feColorMatrix in="SourceAlpha" type="matrix" values="0 0 0 0 0 0 0 0 0 0 0 0 0 0 0 0 0 0 127 0" result="hardAlpha"/>
<feOffset dy="4"/>
<feGaussianBlur stdDeviation="2"/>
<feComposite in2="hardAlpha" operator="out"/>
<feColorMatrix type="matrix" values="0 0 0 0 0 0 0 0 0 0 0 0 0 0 0 0 0 0 0.25 0"/>
<feBlend mode="normal" in2="BackgroundImageFix" result="effect1_dropShadow_609_548"/>
<feBlend mode="normal" in="SourceGraphic" in2="effect1_dropShadow_609_548" result="shape"/>
</filter>
<filter id="filter3_d_609_548" x="374" y="147" width="32" height="26" filterUnits="userSpaceOnUse" color-interpolation-filters="sRGB">
<feFlood flood-opacity="0" result="BackgroundImageFix"/>
<feColorMatrix in="SourceAlpha" type="matrix" values="0 0 0 0 0 0 0 0 0 0 0 0 0 0 0 0 0 0 127 0" result="hardAlpha"/>
<feOffset dy="4"/>
<feGaussianBlur stdDeviation="2"/>
<feComposite in2="hardAlpha" operator="out"/>
<feColorMatrix type="matrix" values="0 0 0 0 0 0 0 0 0 0 0 0 0 0 0 0 0 0 0.25 0"/>
<feBlend mode="normal" in2="BackgroundImageFix" result="effect1_dropShadow_609_548"/>
<feBlend mode="normal" in="SourceGraphic" in2="effect1_dropShadow_609_548" result="shape"/>
</filter>
<filter id="filter4_d_609_548" x="58.9728" y="284.418" width="117.055" height="71.4159" filterUnits="userSpaceOnUse" color-interpolation-filters="sRGB">
<feFlood flood-opacity="0" result="BackgroundImageFix"/>
<feColorMatrix in="SourceAlpha" type="matrix" values="0 0 0 0 0 0 0 0 0 0 0 0 0 0 0 0 0 0 127 0" result="hardAlpha"/>
<feOffset dy="4"/>
<feGaussianBlur stdDeviation="2"/>
<feComposite in2="hardAlpha" operator="out"/>
<feColorMatrix type="matrix" values="0 0 0 0 0 0 0 0 0 0 0 0 0 0 0 0 0 0 0.25 0"/>
<feBlend mode="normal" in2="BackgroundImageFix" result="effect1_dropShadow_609_548"/>
<feBlend mode="normal" in="SourceGraphic" in2="effect1_dropShadow_609_548" result="shape"/>
</filter>
<radialGradient id="paint0_radial_609_548" cx="0" cy="0" r="1" gradientUnits="userSpaceOnUse" gradientTransform="translate(98.9734 702.44) rotate(90) scale(14.6156 73.0089)">
<stop offset="0.84375" stop-opacity="0.19"/>
<stop offset="1" stop-opacity="0"/>
</radialGradient>
<radialGradient id="paint1_radial_609_548" cx="0" cy="0" r="1" gradientUnits="userSpaceOnUse" gradientTransform="translate(985 688) rotate(90) scale(6 54)">
<stop offset="0.84375" stop-opacity="0.19"/>
<stop offset="1" stop-opacity="0"/>
</radialGradient>
<clipPath id="clip0_609_548">
<rect x="589" width="421" height="427" rx="20" fill="white"/>
</clipPath>
<clipPath id="clip1_609_548">
<rect width="591.876" height="161.758" fill="white" transform="translate(239.96 250.839) rotate(1.5)"/>
</clipPath>
<clipPath id="clip2_609_548">
<rect width="190" height="318" fill="white" transform="translate(18 415)"/>
</clipPath>
<clipPath id="clip3_609_548">
<rect width="96" height="96" fill="white" transform="translate(342 75)"/>
</clipPath>
<clipPath id="clip4_609_548">
<rect width="109" height="77" fill="white" transform="translate(63 271)"/>
</clipPath>
<clipPath id="clip5_609_548">
<rect width="118" height="134" fill="white" transform="translate(918 453)"/>
</clipPath>
</defs>
</svg>
