<svg width="24" height="22" viewBox="0 0 24 22" fill="none" xmlns="http://www.w3.org/2000/svg">
<g clip-path="url(#clip0_817_317)">
<path d="M12.064 0.316162C10.5856 0.316162 9.12177 0.602321 7.75597 1.1583C6.39017 1.71428 5.14917 2.52919 4.10383 3.5565C1.99268 5.63126 0.806641 8.44523 0.806641 11.3794C0.806641 16.2693 4.03749 20.418 8.50664 21.8894C9.06951 21.9779 9.24963 21.635 9.24963 21.3363V19.4666C6.13135 20.1304 5.46717 17.9841 5.46717 17.9841C4.94933 16.7008 4.21761 16.3578 4.21761 16.3578C3.19319 15.6719 4.29641 15.694 4.29641 15.694C5.42214 15.7715 6.01878 16.8335 6.01878 16.8335C6.99816 18.5152 8.65299 18.0173 9.29465 17.7518C9.39597 17.0327 9.68866 16.5459 10.0039 16.2693C7.50474 15.9927 4.88179 15.0413 4.88179 10.8262C4.88179 9.5982 5.30957 8.61358 6.04129 7.82809C5.92872 7.55151 5.53471 6.40093 6.15386 4.9074C6.15386 4.9074 7.09948 4.60869 9.24963 6.03585C10.139 5.79246 11.1071 5.67076 12.064 5.67076C13.0208 5.67076 13.989 5.79246 14.8783 6.03585C17.0284 4.60869 17.974 4.9074 17.974 4.9074C18.5932 6.40093 18.1992 7.55151 18.0866 7.82809C18.8183 8.61358 19.2461 9.5982 19.2461 10.8262C19.2461 15.0524 16.6119 15.9817 14.1015 16.2583C14.5068 16.6012 14.8783 17.2761 14.8783 18.305V21.3363C14.8783 21.635 15.0584 21.989 15.6325 21.8894C20.1017 20.407 23.3213 16.2693 23.3213 11.3794C23.3213 9.92654 23.0301 8.48792 22.4644 7.14567C21.8986 5.80342 21.0694 4.58382 20.0241 3.5565C18.9787 2.52919 17.7377 1.71428 16.3719 1.1583C15.0061 0.602321 13.5423 0.316162 12.064 0.316162V0.316162Z" fill="#F1F1F1"/>
</g>
<defs>
<clipPath id="clip0_817_317">
<rect width="23.1579" height="22" fill="white" transform="translate(0.485352)"/>
</clipPath>
</defs>
</svg>
