<svg width="23" height="22" viewBox="0 0 23 22" fill="none" xmlns="http://www.w3.org/2000/svg">
<path d="M19.5556 0C20.2039 0 20.8256 0.250385 21.284 0.696073C21.7425 1.14176 22 1.74624 22 2.37654V19.0123C22 19.6426 21.7425 20.2471 21.284 20.6928C20.8256 21.1385 20.2039 21.3889 19.5556 21.3889H2.44444C1.79614 21.3889 1.17438 21.1385 0.715961 20.6928C0.257539 20.2471 0 19.6426 0 19.0123V2.37654C0 1.74624 0.257539 1.14176 0.715961 0.696073C1.17438 0.250385 1.79614 0 2.44444 0H19.5556ZM18.9444 18.4182V12.1204C18.9444 11.093 18.5247 10.1077 17.7774 9.3812C17.0302 8.65473 16.0167 8.2466 14.96 8.2466C13.9211 8.2466 12.7111 8.86451 12.1244 9.79136V8.47238H8.71444V18.4182H12.1244V12.56C12.1244 11.6451 12.8822 10.8965 13.8233 10.8965C14.2771 10.8965 14.7124 11.0717 15.0333 11.3837C15.3542 11.6957 15.5344 12.1188 15.5344 12.56V18.4182H18.9444ZM4.74222 6.60679C5.2868 6.60679 5.80907 6.39647 6.19415 6.02209C6.57922 5.64771 6.79556 5.13994 6.79556 4.61049C6.79556 3.5054 5.87889 2.60231 4.74222 2.60231C4.1944 2.60231 3.66902 2.81389 3.28165 3.1905C2.89429 3.5671 2.67667 4.07789 2.67667 4.61049C2.67667 5.71559 3.60556 6.60679 4.74222 6.60679M6.44111 18.4182V8.47238H3.05556V18.4182H6.44111V18.4182Z" fill="#F1F1F1"/>
</svg>
